<svg width="762" height="916" viewBox="0 0 762 916" version="1.1" xmlns="http://www.w3.org/2000/svg" xmlns:xlink="http://www.w3.org/1999/xlink" xmlns:figma="http://www.figma.com/figma/ns">
<title>Vector</title>
<desc>Created using Figma</desc>
<g id="Canvas" transform="translate(-6 -2)" figma:type="canvas">
<g id="Vector" style="mix-blend-mode:normal;" figma:type="vector">
<use xlink:href="#path0_stroke" transform="translate(10 10)" fill="#FFFFFF" style="mix-blend-mode:normal;"/>
</g>
</g>
<defs>
<path id="path0_stroke" d="M 450 450L 446.464 446.464L 450 450ZM 600 300L 603.536 296.464L 600 292.929L 596.464 296.464L 600 300ZM 750 450L 753.536 453.536L 757.071 450L 753.536 446.464L 750 450ZM 600 600L 596.464 603.536L 600 607.071L 603.536 603.536L 600 600ZM 450 750L 453.536 753.536L 457.071 750L 453.536 746.464L 450 750ZM 300 900L 296.464 903.536L 300 907.071L 303.536 903.536L 300 900ZM 450 150L 453.536 153.536L 457.071 150L 453.536 146.464L 450 150ZM 300 0L 303.536 -3.53553L 300 -7.07107L 296.464 -3.53553L 300 0ZM 453.536 453.536L 603.536 303.536L 596.464 296.464L 446.464 446.464L 453.536 453.536ZM 596.464 303.536L 746.464 453.536L 753.536 446.464L 603.536 296.464L 596.464 303.536ZM 746.464 446.464L 596.464 596.464L 603.536 603.536L 753.536 453.536L 746.464 446.464ZM 603.536 596.464L 303.536 296.464L 296.464 303.536L 596.464 603.536L 603.536 596.464ZM 446.464 446.464L 296.464 596.464L 303.536 603.536L 453.536 453.536L 446.464 446.464ZM 296.464 603.536L 446.464 753.536L 453.536 746.464L 303.536 596.464L 296.464 603.536ZM 446.464 746.464L 296.464 896.464L 303.536 903.536L 453.536 753.536L 446.464 746.464ZM 303.536 896.464L 153.536 746.464L 146.464 753.536L 296.464 903.536L 303.536 896.464ZM 153.536 753.536L 303.536 603.536L 296.464 596.464L 146.464 746.464L 153.536 753.536ZM 303.536 303.536L 453.536 153.536L 446.464 146.464L 296.464 296.464L 303.536 303.536ZM 453.536 146.464L 303.536 -3.53553L 296.464 3.53553L 446.464 153.536L 453.536 146.464ZM 296.464 -3.53553L 146.464 146.464L 153.536 153.536L 303.536 3.53553L 296.464 -3.53553ZM 146.464 153.536L 296.464 303.536L 303.536 296.464L 153.536 146.464L 146.464 153.536ZM 153.536 146.464L 3.53553 -3.53553L -3.53553 3.53553L 146.464 153.536L 153.536 146.464ZM 146.464 146.464L -3.53553 296.464L 3.53553 303.536L 153.536 153.536L 146.464 146.464ZM 153.536 746.464L 3.53553 596.464L -3.53553 603.536L 146.464 753.536L 153.536 746.464ZM 146.464 746.464L -3.53553 896.464L 3.53553 903.536L 153.536 753.536L 146.464 746.464ZM 379.577 109.789L 372.535 109.789L 372.535 119.789L 379.577 119.789L 379.577 109.789ZM 679.577 409.789L 672.535 409.789L 672.535 419.789L 679.577 419.789L 679.577 409.789ZM 379.577 709.789L 372.535 709.789L 372.535 719.789L 379.577 719.789L 379.577 709.789Z"/>
</defs>
</svg>
